<mxfile host="65bd71144e">
    <diagram id="qZF-AfCJHiGcOwOiKcEP" name="Página-1">
        <mxGraphModel dx="1066" dy="614" grid="1" gridSize="10" guides="1" tooltips="1" connect="1" arrows="1" fold="1" page="1" pageScale="1" pageWidth="827" pageHeight="1169" math="0" shadow="0">
            <root>
                <mxCell id="0"/>
                <mxCell id="1" parent="0"/>
                <mxCell id="2" value="&lt;font color=&quot;#000000&quot; style=&quot;font-size: 15px;&quot;&gt;El server debe manejar las siguientes peticiones:&lt;br&gt;&lt;ul&gt;&lt;li&gt;GET de lista de puntuaciones: La lista estará guardada en un array en un archivo Json, cada entrada sera tendra dos propiedades {nombre: asdasd, puntos:xxx}&lt;/li&gt;&lt;li&gt;POST de la lista de puntuaciones: recibira por body un objeto {nombre, puntos}, verificara si el nombre esta en la lista y lo agregará si no está y si esta y el puntaje recibido es mayor actualizara la lista y el archivo&lt;/li&gt;&lt;li&gt;GET de una lista de preguntas de acuerdo a ciertos parámetros&lt;/li&gt;&lt;/ul&gt;&lt;/font&gt;" style="rounded=1;whiteSpace=wrap;html=1;fillColor=#dae8fc;strokeColor=#6c8ebf;" vertex="1" parent="1">
                    <mxGeometry x="50" y="30" width="660" height="340" as="geometry"/>
                </mxCell>
            </root>
        </mxGraphModel>
    </diagram>
</mxfile>